<mxfile host="app.diagrams.net" modified="2023-04-11T19:25:55.308Z" agent="Mozilla/5.0 (Windows NT 10.0; Win64; x64) AppleWebKit/537.36 (KHTML, like Gecko) Chrome/111.0.0.0 Safari/537.36" etag="Ug8wEhMuPe77doBWbi9P" version="21.1.4" type="device">
  <diagram name="Страница 1" id="9Xc5u7ofYKPuOsVl6prk">
    <mxGraphModel dx="-110" dy="354" grid="1" gridSize="10" guides="1" tooltips="1" connect="1" arrows="1" fold="1" page="1" pageScale="1" pageWidth="827" pageHeight="1169" math="0" shadow="0">
      <root>
        <mxCell id="0" />
        <mxCell id="1" parent="0" />
        <mxCell id="eykEgs57wymac1sdwvsL-1" value="ioc.core.ts" style="swimlane;whiteSpace=wrap;html=1;rounded=1;dashed=1;fillColor=#dae8fc;strokeColor=#6c8ebf;" vertex="1" parent="1">
          <mxGeometry x="920" y="270" width="100" height="440" as="geometry" />
        </mxCell>
        <mxCell id="eykEgs57wymac1sdwvsL-2" style="edgeStyle=orthogonalEdgeStyle;rounded=0;orthogonalLoop=1;jettySize=auto;html=1;fillColor=#d5e8d4;strokeColor=#82b366;" edge="1" parent="1" source="eykEgs57wymac1sdwvsL-4">
          <mxGeometry relative="1" as="geometry">
            <mxPoint x="1020" y="330" as="targetPoint" />
          </mxGeometry>
        </mxCell>
        <mxCell id="eykEgs57wymac1sdwvsL-3" value="bind&lt;br&gt;Symbol(&#39;CoreManager&#39;)" style="edgeLabel;html=1;align=center;verticalAlign=middle;resizable=0;points=[];labelBackgroundColor=#CDA2BE;" vertex="1" connectable="0" parent="eykEgs57wymac1sdwvsL-2">
          <mxGeometry x="-0.0658" relative="1" as="geometry">
            <mxPoint x="-13" as="offset" />
          </mxGeometry>
        </mxCell>
        <mxCell id="eykEgs57wymac1sdwvsL-4" value="core.manager.ts" style="rounded=1;whiteSpace=wrap;html=1;fillColor=#d5e8d4;strokeColor=#82b366;" vertex="1" parent="1">
          <mxGeometry x="1250" y="310" width="180" height="40" as="geometry" />
        </mxCell>
        <mxCell id="eykEgs57wymac1sdwvsL-5" style="edgeStyle=orthogonalEdgeStyle;rounded=0;orthogonalLoop=1;jettySize=auto;html=1;exitX=0;exitY=0.5;exitDx=0;exitDy=0;fillColor=#d5e8d4;strokeColor=#82b366;" edge="1" parent="1" source="eykEgs57wymac1sdwvsL-6">
          <mxGeometry relative="1" as="geometry">
            <mxPoint x="1020" y="400" as="targetPoint" />
          </mxGeometry>
        </mxCell>
        <mxCell id="eykEgs57wymac1sdwvsL-6" value="business.manager.ts" style="rounded=1;whiteSpace=wrap;html=1;fillColor=#d5e8d4;strokeColor=#82b366;" vertex="1" parent="1">
          <mxGeometry x="1250" y="380" width="180" height="40" as="geometry" />
        </mxCell>
        <mxCell id="eykEgs57wymac1sdwvsL-7" style="edgeStyle=orthogonalEdgeStyle;rounded=0;orthogonalLoop=1;jettySize=auto;html=1;fillColor=#d5e8d4;strokeColor=#82b366;" edge="1" parent="1" source="eykEgs57wymac1sdwvsL-9">
          <mxGeometry relative="1" as="geometry">
            <mxPoint x="1020" y="490" as="targetPoint" />
            <Array as="points">
              <mxPoint x="1140" y="490" />
              <mxPoint x="1140" y="490" />
            </Array>
          </mxGeometry>
        </mxCell>
        <mxCell id="eykEgs57wymac1sdwvsL-8" value="bind&lt;br&gt;Symbol(&#39;{manager-name}Manager&#39;)" style="edgeLabel;html=1;align=center;verticalAlign=middle;resizable=0;points=[];labelBackgroundColor=#CDA2BE;" vertex="1" connectable="0" parent="eykEgs57wymac1sdwvsL-7">
          <mxGeometry x="0.0832" y="-2" relative="1" as="geometry">
            <mxPoint x="15" y="2" as="offset" />
          </mxGeometry>
        </mxCell>
        <mxCell id="eykEgs57wymac1sdwvsL-9" value="{manager-name}.manager.ts" style="rounded=1;whiteSpace=wrap;html=1;fillColor=#d5e8d4;strokeColor=#82b366;" vertex="1" parent="1">
          <mxGeometry x="1250" y="470" width="180" height="40" as="geometry" />
        </mxCell>
        <mxCell id="eykEgs57wymac1sdwvsL-10" value="bind&lt;br&gt;Symbol(&#39;BusinessManager&#39;)" style="edgeLabel;html=1;align=center;verticalAlign=middle;resizable=0;points=[];labelBackgroundColor=#CDA2BE;" vertex="1" connectable="0" parent="1">
          <mxGeometry x="1129.9971428571425" y="320" as="geometry">
            <mxPoint x="3" y="82" as="offset" />
          </mxGeometry>
        </mxCell>
        <mxCell id="eykEgs57wymac1sdwvsL-11" style="edgeStyle=orthogonalEdgeStyle;rounded=1;orthogonalLoop=1;jettySize=auto;html=1;entryX=1;entryY=0.5;entryDx=0;entryDy=0;fillColor=#dae8fc;strokeColor=#6c8ebf;" edge="1" parent="1" source="eykEgs57wymac1sdwvsL-15" target="eykEgs57wymac1sdwvsL-4">
          <mxGeometry relative="1" as="geometry">
            <Array as="points">
              <mxPoint x="1450" y="400" />
              <mxPoint x="1450" y="330" />
            </Array>
          </mxGeometry>
        </mxCell>
        <mxCell id="eykEgs57wymac1sdwvsL-12" style="edgeStyle=orthogonalEdgeStyle;rounded=1;orthogonalLoop=1;jettySize=auto;html=1;entryX=1;entryY=0.5;entryDx=0;entryDy=0;fillColor=#dae8fc;strokeColor=#6c8ebf;" edge="1" parent="1" source="eykEgs57wymac1sdwvsL-15" target="eykEgs57wymac1sdwvsL-6">
          <mxGeometry relative="1" as="geometry" />
        </mxCell>
        <mxCell id="eykEgs57wymac1sdwvsL-13" style="edgeStyle=orthogonalEdgeStyle;rounded=1;orthogonalLoop=1;jettySize=auto;html=1;entryX=1;entryY=0.5;entryDx=0;entryDy=0;fillColor=#dae8fc;strokeColor=#6c8ebf;" edge="1" parent="1" source="eykEgs57wymac1sdwvsL-15" target="eykEgs57wymac1sdwvsL-9">
          <mxGeometry relative="1" as="geometry">
            <Array as="points">
              <mxPoint x="1450" y="400" />
              <mxPoint x="1450" y="490" />
            </Array>
          </mxGeometry>
        </mxCell>
        <mxCell id="eykEgs57wymac1sdwvsL-14" value="extends" style="edgeLabel;html=1;align=center;verticalAlign=middle;resizable=0;points=[];labelBackgroundColor=#CDA2BE;" vertex="1" connectable="0" parent="eykEgs57wymac1sdwvsL-13">
          <mxGeometry x="-0.6489" y="2" relative="1" as="geometry">
            <mxPoint y="-2" as="offset" />
          </mxGeometry>
        </mxCell>
        <mxCell id="eykEgs57wymac1sdwvsL-15" value="abstract.manager.ts" style="rounded=1;whiteSpace=wrap;html=1;fillColor=#d5e8d4;strokeColor=#82b366;" vertex="1" parent="1">
          <mxGeometry x="1524.74" y="380" width="180" height="40" as="geometry" />
        </mxCell>
        <mxCell id="eykEgs57wymac1sdwvsL-16" value="methods and properties" style="swimlane;whiteSpace=wrap;html=1;fillColor=#f8cecc;strokeColor=#b85450;rounded=1;" vertex="1" parent="1">
          <mxGeometry x="1587.74" y="440" width="362.26" height="330" as="geometry" />
        </mxCell>
        <mxCell id="eykEgs57wymac1sdwvsL-17" value="protected abstract _MANAGER_NAME: string" style="rounded=1;whiteSpace=wrap;html=1;fillColor=#fff2cc;strokeColor=#d6b656;" vertex="1" parent="eykEgs57wymac1sdwvsL-16">
          <mxGeometry x="10" y="40" width="336" height="30" as="geometry" />
        </mxCell>
        <mxCell id="eykEgs57wymac1sdwvsL-18" value="protected abstract _MANAGER_ENABLED: string | undefined" style="rounded=1;whiteSpace=wrap;html=1;fillColor=#fff2cc;strokeColor=#d6b656;" vertex="1" parent="eykEgs57wymac1sdwvsL-16">
          <mxGeometry x="10" y="80" width="336" height="30" as="geometry" />
        </mxCell>
        <mxCell id="eykEgs57wymac1sdwvsL-35" value="protected abstract _MANAGER_NAME: string" style="rounded=1;whiteSpace=wrap;html=1;fillColor=#fff2cc;strokeColor=#d6b656;" vertex="1" parent="eykEgs57wymac1sdwvsL-16">
          <mxGeometry x="10" y="40" width="336" height="30" as="geometry" />
        </mxCell>
        <mxCell id="eykEgs57wymac1sdwvsL-36" value="protected abstract _MANAGER_ENABLED: string | undefined" style="rounded=1;whiteSpace=wrap;html=1;fillColor=#fff2cc;strokeColor=#d6b656;" vertex="1" parent="eykEgs57wymac1sdwvsL-16">
          <mxGeometry x="10" y="80" width="336" height="30" as="geometry" />
        </mxCell>
        <mxCell id="eykEgs57wymac1sdwvsL-40" value="protected abstract _MANAGER_NAME: string" style="rounded=1;whiteSpace=wrap;html=1;fillColor=#fff2cc;strokeColor=#d6b656;" vertex="1" parent="eykEgs57wymac1sdwvsL-16">
          <mxGeometry x="10" y="40" width="336" height="30" as="geometry" />
        </mxCell>
        <mxCell id="eykEgs57wymac1sdwvsL-41" value="protected abstract _MANAGER_ENABLED: string | undefined" style="rounded=1;whiteSpace=wrap;html=1;fillColor=#fff2cc;strokeColor=#d6b656;" vertex="1" parent="eykEgs57wymac1sdwvsL-16">
          <mxGeometry x="10" y="80" width="336" height="30" as="geometry" />
        </mxCell>
        <mxCell id="eykEgs57wymac1sdwvsL-81" style="edgeStyle=orthogonalEdgeStyle;rounded=1;orthogonalLoop=1;jettySize=auto;html=1;fillColor=#fff2cc;strokeColor=#d6b656;dashed=1;" edge="1" parent="eykEgs57wymac1sdwvsL-16" source="eykEgs57wymac1sdwvsL-44">
          <mxGeometry relative="1" as="geometry">
            <mxPoint x="-17.74000000000001" y="-20.000000000000114" as="targetPoint" />
          </mxGeometry>
        </mxCell>
        <mxCell id="eykEgs57wymac1sdwvsL-44" value="protected abstract _server: http.Server | undefined" style="rounded=1;whiteSpace=wrap;html=1;fillColor=#fff2cc;strokeColor=#d6b656;" vertex="1" parent="eykEgs57wymac1sdwvsL-16">
          <mxGeometry x="8" y="280" width="340" height="30" as="geometry" />
        </mxCell>
        <mxCell id="eykEgs57wymac1sdwvsL-80" style="edgeStyle=orthogonalEdgeStyle;rounded=1;orthogonalLoop=1;jettySize=auto;html=1;fillColor=#fff2cc;strokeColor=#d6b656;dashed=1;" edge="1" parent="eykEgs57wymac1sdwvsL-16" source="eykEgs57wymac1sdwvsL-45">
          <mxGeometry relative="1" as="geometry">
            <mxPoint x="-17.74000000000001" y="-20.000000000000114" as="targetPoint" />
          </mxGeometry>
        </mxCell>
        <mxCell id="eykEgs57wymac1sdwvsL-45" value="protected abstract _BASE_CLI_URL: string | undefined" style="rounded=1;whiteSpace=wrap;html=1;fillColor=#fff2cc;strokeColor=#d6b656;" vertex="1" parent="eykEgs57wymac1sdwvsL-16">
          <mxGeometry x="8" y="240" width="340" height="30" as="geometry" />
        </mxCell>
        <mxCell id="eykEgs57wymac1sdwvsL-49" value="protected abstract _MANAGER_ENABLED: string | undefined" style="rounded=1;whiteSpace=wrap;html=1;fillColor=#fff2cc;strokeColor=#d6b656;" vertex="1" parent="eykEgs57wymac1sdwvsL-16">
          <mxGeometry x="10" y="80" width="336" height="30" as="geometry" />
        </mxCell>
        <mxCell id="eykEgs57wymac1sdwvsL-50" value="protected abstract _MANAGER_NAME: string" style="rounded=1;whiteSpace=wrap;html=1;fillColor=#fff2cc;strokeColor=#d6b656;" vertex="1" parent="eykEgs57wymac1sdwvsL-16">
          <mxGeometry x="10" y="40" width="336" height="30" as="geometry" />
        </mxCell>
        <mxCell id="eykEgs57wymac1sdwvsL-79" style="edgeStyle=orthogonalEdgeStyle;rounded=1;orthogonalLoop=1;jettySize=auto;html=1;strokeColor=#FFD966;dashed=1;" edge="1" parent="eykEgs57wymac1sdwvsL-16" source="eykEgs57wymac1sdwvsL-51">
          <mxGeometry relative="1" as="geometry">
            <mxPoint x="-17.74000000000001" y="-20.000000000000114" as="targetPoint" />
          </mxGeometry>
        </mxCell>
        <mxCell id="eykEgs57wymac1sdwvsL-51" value="protected abstract _PORT: number | undefined" style="rounded=1;whiteSpace=wrap;html=1;fillColor=#fff2cc;strokeColor=#d6b656;" vertex="1" parent="eykEgs57wymac1sdwvsL-16">
          <mxGeometry x="10" y="200" width="340" height="30" as="geometry" />
        </mxCell>
        <mxCell id="eykEgs57wymac1sdwvsL-78" style="edgeStyle=orthogonalEdgeStyle;rounded=1;orthogonalLoop=1;jettySize=auto;html=1;fillColor=#fff2cc;strokeColor=#d6b656;dashed=1;" edge="1" parent="eykEgs57wymac1sdwvsL-16" source="eykEgs57wymac1sdwvsL-52">
          <mxGeometry relative="1" as="geometry">
            <mxPoint x="-17.74000000000001" y="-20.000000000000114" as="targetPoint" />
          </mxGeometry>
        </mxCell>
        <mxCell id="eykEgs57wymac1sdwvsL-52" value="protected abstract _HOST: string | undefined" style="rounded=1;whiteSpace=wrap;html=1;fillColor=#fff2cc;strokeColor=#d6b656;" vertex="1" parent="eykEgs57wymac1sdwvsL-16">
          <mxGeometry x="10" y="160" width="340" height="30" as="geometry" />
        </mxCell>
        <mxCell id="eykEgs57wymac1sdwvsL-77" style="edgeStyle=orthogonalEdgeStyle;rounded=1;orthogonalLoop=1;jettySize=auto;html=1;fillColor=#fff2cc;strokeColor=#d6b656;dashed=1;" edge="1" parent="eykEgs57wymac1sdwvsL-16" source="eykEgs57wymac1sdwvsL-53">
          <mxGeometry relative="1" as="geometry">
            <mxPoint x="-17.74000000000001" y="-20.000000000000114" as="targetPoint" />
          </mxGeometry>
        </mxCell>
        <mxCell id="eykEgs57wymac1sdwvsL-53" value="protected abstract _PROTOCOL: string | undefined" style="rounded=1;whiteSpace=wrap;html=1;fillColor=#fff2cc;strokeColor=#d6b656;" vertex="1" parent="eykEgs57wymac1sdwvsL-16">
          <mxGeometry x="10" y="120" width="340" height="30" as="geometry" />
        </mxCell>
        <mxCell id="eykEgs57wymac1sdwvsL-76" style="edgeStyle=orthogonalEdgeStyle;rounded=1;orthogonalLoop=1;jettySize=auto;html=1;fillColor=#fff2cc;strokeColor=#d6b656;dashed=1;" edge="1" parent="eykEgs57wymac1sdwvsL-16" source="eykEgs57wymac1sdwvsL-54">
          <mxGeometry relative="1" as="geometry">
            <mxPoint x="-17.74000000000001" y="-20.000000000000114" as="targetPoint" />
          </mxGeometry>
        </mxCell>
        <mxCell id="eykEgs57wymac1sdwvsL-54" value="protected abstract _MANAGER_ENABLED: string | undefined" style="rounded=1;whiteSpace=wrap;html=1;fillColor=#fff2cc;strokeColor=#d6b656;" vertex="1" parent="eykEgs57wymac1sdwvsL-16">
          <mxGeometry x="10" y="80" width="340" height="30" as="geometry" />
        </mxCell>
        <mxCell id="eykEgs57wymac1sdwvsL-55" value="protected abstract _MANAGER_NAME: string" style="rounded=1;whiteSpace=wrap;html=1;fillColor=#fff2cc;strokeColor=#d6b656;" vertex="1" parent="eykEgs57wymac1sdwvsL-16">
          <mxGeometry x="10" y="40" width="340" height="30" as="geometry" />
        </mxCell>
        <mxCell id="eykEgs57wymac1sdwvsL-23" style="edgeStyle=orthogonalEdgeStyle;rounded=1;orthogonalLoop=1;jettySize=auto;html=1;entryX=0.5;entryY=0;entryDx=0;entryDy=0;fillColor=#dae8fc;strokeColor=#6c8ebf;" edge="1" parent="1" target="eykEgs57wymac1sdwvsL-27">
          <mxGeometry relative="1" as="geometry">
            <mxPoint x="1020" y="562" as="sourcePoint" />
            <Array as="points">
              <mxPoint x="1320" y="562" />
            </Array>
          </mxGeometry>
        </mxCell>
        <mxCell id="eykEgs57wymac1sdwvsL-24" value="inject&lt;br&gt;All managers" style="edgeLabel;html=1;align=center;verticalAlign=middle;resizable=0;points=[];labelBackgroundColor=#CDA2BE;" vertex="1" connectable="0" parent="eykEgs57wymac1sdwvsL-23">
          <mxGeometry x="-0.1873" y="2" relative="1" as="geometry">
            <mxPoint x="-14" as="offset" />
          </mxGeometry>
        </mxCell>
        <mxCell id="eykEgs57wymac1sdwvsL-25" style="edgeStyle=orthogonalEdgeStyle;rounded=1;orthogonalLoop=1;jettySize=auto;html=1;exitX=0.5;exitY=1;exitDx=0;exitDy=0;fillColor=#d5e8d4;strokeColor=#82b366;" edge="1" parent="1" source="eykEgs57wymac1sdwvsL-27">
          <mxGeometry relative="1" as="geometry">
            <mxPoint x="1020" y="662" as="targetPoint" />
            <Array as="points">
              <mxPoint x="1320" y="662" />
            </Array>
          </mxGeometry>
        </mxCell>
        <mxCell id="eykEgs57wymac1sdwvsL-26" value="bind&lt;br&gt;Symbol(&#39;ManagersFactory&#39;)" style="edgeLabel;html=1;align=center;verticalAlign=middle;resizable=0;points=[];labelBackgroundColor=#CDA2BE;" vertex="1" connectable="0" parent="eykEgs57wymac1sdwvsL-25">
          <mxGeometry x="0.3368" y="4" relative="1" as="geometry">
            <mxPoint x="21" y="-4" as="offset" />
          </mxGeometry>
        </mxCell>
        <mxCell id="eykEgs57wymac1sdwvsL-27" value="managers.factory.ts" style="rounded=1;whiteSpace=wrap;html=1;fillColor=#d5e8d4;strokeColor=#82b366;" vertex="1" parent="1">
          <mxGeometry x="1230" y="591.98" width="180" height="40" as="geometry" />
        </mxCell>
        <mxCell id="eykEgs57wymac1sdwvsL-75" style="edgeStyle=orthogonalEdgeStyle;rounded=1;orthogonalLoop=1;jettySize=auto;html=1;entryX=0.25;entryY=1;entryDx=0;entryDy=0;exitX=0;exitY=0.5;exitDx=0;exitDy=0;fillColor=#fff2cc;strokeColor=#d6b656;dashed=1;" edge="1" parent="1" source="eykEgs57wymac1sdwvsL-55" target="eykEgs57wymac1sdwvsL-15">
          <mxGeometry relative="1" as="geometry" />
        </mxCell>
        <mxCell id="eykEgs57wymac1sdwvsL-83" style="edgeStyle=orthogonalEdgeStyle;rounded=0;orthogonalLoop=1;jettySize=auto;html=1;fillColor=#d5e8d4;strokeColor=#82b366;" edge="1" parent="1" source="eykEgs57wymac1sdwvsL-85">
          <mxGeometry relative="1" as="geometry">
            <mxPoint x="1020" y="270" as="targetPoint" />
          </mxGeometry>
        </mxCell>
        <mxCell id="eykEgs57wymac1sdwvsL-84" value="bind&lt;br&gt;Symbol(&#39;CoreManagerServer&#39;)" style="edgeLabel;html=1;align=center;verticalAlign=middle;resizable=0;points=[];labelBackgroundColor=#CDA2BE;" vertex="1" connectable="0" parent="eykEgs57wymac1sdwvsL-83">
          <mxGeometry x="-0.0658" relative="1" as="geometry">
            <mxPoint x="-13" as="offset" />
          </mxGeometry>
        </mxCell>
        <mxCell id="eykEgs57wymac1sdwvsL-85" value="core.manager.server.ts" style="rounded=1;whiteSpace=wrap;html=1;fillColor=#d5e8d4;strokeColor=#82b366;" vertex="1" parent="1">
          <mxGeometry x="1250" y="250" width="180" height="40" as="geometry" />
        </mxCell>
        <mxCell id="eykEgs57wymac1sdwvsL-87" style="edgeStyle=orthogonalEdgeStyle;rounded=0;orthogonalLoop=1;jettySize=auto;html=1;fillColor=#d5e8d4;strokeColor=#82b366;" edge="1" parent="1" source="eykEgs57wymac1sdwvsL-89">
          <mxGeometry relative="1" as="geometry">
            <mxPoint x="1020" y="210" as="targetPoint" />
          </mxGeometry>
        </mxCell>
        <mxCell id="eykEgs57wymac1sdwvsL-88" value="bind&lt;br&gt;Symbol(&#39;CoreManagerMediator&#39;)" style="edgeLabel;html=1;align=center;verticalAlign=middle;resizable=0;points=[];labelBackgroundColor=#CDA2BE;" vertex="1" connectable="0" parent="eykEgs57wymac1sdwvsL-87">
          <mxGeometry x="-0.0658" relative="1" as="geometry">
            <mxPoint x="-13" as="offset" />
          </mxGeometry>
        </mxCell>
        <mxCell id="eykEgs57wymac1sdwvsL-89" value="core.manager.mediator.ts" style="rounded=1;whiteSpace=wrap;html=1;fillColor=#d5e8d4;strokeColor=#82b366;" vertex="1" parent="1">
          <mxGeometry x="1250" y="190" width="180" height="40" as="geometry" />
        </mxCell>
        <mxCell id="eykEgs57wymac1sdwvsL-90" style="edgeStyle=orthogonalEdgeStyle;rounded=0;orthogonalLoop=1;jettySize=auto;html=1;fillColor=#d5e8d4;strokeColor=#82b366;" edge="1" parent="1" source="eykEgs57wymac1sdwvsL-92">
          <mxGeometry relative="1" as="geometry">
            <mxPoint x="1020" y="150" as="targetPoint" />
          </mxGeometry>
        </mxCell>
        <mxCell id="eykEgs57wymac1sdwvsL-91" value="bind&lt;br&gt;Symbol(&#39;AuthCoreCommands&#39;)" style="edgeLabel;html=1;align=center;verticalAlign=middle;resizable=0;points=[];labelBackgroundColor=#CDA2BE;" vertex="1" connectable="0" parent="eykEgs57wymac1sdwvsL-90">
          <mxGeometry x="-0.0658" relative="1" as="geometry">
            <mxPoint x="-13" as="offset" />
          </mxGeometry>
        </mxCell>
        <mxCell id="eykEgs57wymac1sdwvsL-92" value="auth.core.commands.ts" style="rounded=1;whiteSpace=wrap;html=1;fillColor=#d5e8d4;strokeColor=#82b366;" vertex="1" parent="1">
          <mxGeometry x="1250" y="130" width="180" height="40" as="geometry" />
        </mxCell>
      </root>
    </mxGraphModel>
  </diagram>
</mxfile>
